<?xml version="1.0" encoding="UTF-8"?>
<!DOCTYPE svg PUBLIC "-//W3C//DTD SVG 1.1//EN" "http://www.w3.org/Graphics/SVG/1.1/DTD/svg11.dtd">
<svg xmlns="http://www.w3.org/2000/svg" version="1.1" width="334px" height="285px" style="shape-rendering:geometricPrecision; text-rendering:geometricPrecision; image-rendering:optimizeQuality; fill-rule:evenodd; clip-rule:evenodd" xmlns:xlink="http://www.w3.org/1999/xlink">
    <g><path style="opacity:0.972" fill="#f7d93d" d="M 141.5,16.5 C 157.926,16.6067 173.259,20.7734 187.5,29C 231.679,57.1889 263.512,95.6889 283,144.5C 291.037,164.093 294.037,184.427 292,205.5C 290.706,213.053 288.039,220.053 284,226.5C 264.732,243.737 242.898,256.903 218.5,266C 194.41,273.706 169.743,276.372 144.5,274C 138.742,273.515 133.075,272.515 127.5,271C 114.933,266.923 102.6,262.256 90.5,257C 78.1007,254.568 66.1007,250.901 54.5,246C 49.9804,242.464 46.8137,237.964 45,232.5C 42.6923,204.891 42.0257,177.225 43,149.5C 44.7349,125.629 52.0682,103.629 65,83.5C 81.9788,56.1871 104.479,34.6871 132.5,19C 135.678,18.3405 138.678,17.5072 141.5,16.5 Z M 139.5,35.5 C 146.906,35.152 154.239,35.652 161.5,37C 176.635,43.0608 190.301,51.3942 202.5,62C 227.722,84.543 247.555,111.043 262,141.5C 269.459,157.711 273.959,174.711 275.5,192.5C 274.873,218.298 262.206,227.798 237.5,221C 214.647,211.16 194.814,196.994 178,178.5C 151.954,149.749 134.288,116.415 125,78.5C 122.595,67.9583 123.262,57.6249 127,47.5C 129.769,41.8947 133.936,37.8947 139.5,35.5 Z M 104.5,61.5 C 108.238,100.206 121.738,135.206 145,166.5C 161.92,190.754 182.753,210.921 207.5,227C 215.418,231.697 223.751,235.53 232.5,238.5C 233.833,239.167 233.833,239.833 232.5,240.5C 199.993,256.647 165.993,260.813 130.5,253C 118.089,248.53 105.756,243.863 93.5,239C 85.495,236.999 77.495,234.999 69.5,233C 66.8976,232.117 64.7309,230.617 63,228.5C 61.7758,223.614 61.1091,218.614 61,213.5C 60.3333,193.167 60.3333,172.833 61,152.5C 62.8077,127.408 71.141,104.741 86,84.5C 92.175,76.8028 98.3417,69.1362 104.5,61.5 Z"/></g>
    <g><path style="opacity:0.969" fill="#f7d93d" d="M 145.5,45.5 C 154.166,45.1331 162.499,46.6331 170.5,50C 179.596,54.628 188.096,60.128 196,66.5C 196.284,82.5324 195.618,98.5324 194,114.5C 176.81,92.1562 160.644,69.1562 145.5,45.5 Z"/></g>
    <g><path style="opacity:0.97" fill="#f7d93d" d="M 134.5,55.5 C 137.643,56.1335 140.143,57.8002 142,60.5C 158.382,79.427 174.882,98.2604 191.5,117C 173.627,112.933 156.127,107.433 139,100.5C 133.756,85.8627 132.256,70.8627 134.5,55.5 Z"/></g>
    <g><path style="opacity:0.969" fill="#f7d93d" d="M 204.5,77.5 C 206.308,77.4914 207.975,77.9914 209.5,79C 226.912,97.3145 241.245,117.814 252.5,140.5C 252.333,140.833 252.167,141.167 252,141.5C 234.596,134.866 217.096,128.532 199.5,122.5C 200.427,107.417 202.094,92.4172 204.5,77.5 Z"/></g>
    <g><path style="opacity:0.957" fill="#f7d93d" d="M 145.5,114.5 C 157.521,116.471 169.521,118.637 181.5,121C 184.008,121.115 186.008,122.115 187.5,124C 180.035,131.797 172.201,139.297 164,146.5C 156.023,136.879 149.856,126.213 145.5,114.5 Z"/></g>
    <g><path style="opacity:0.962" fill="#f7d93d" d="M 204.5,127.5 C 222.383,135.691 240.216,144.024 258,152.5C 264.344,167.565 266.678,183.232 265,199.5C 264.692,200.308 264.192,200.975 263.5,201.5C 243.055,178.61 223.555,154.943 205,130.5C 204.517,129.552 204.351,128.552 204.5,127.5 Z"/></g>
    <g><path style="opacity:0.958" fill="#f7d93d" d="M 192.5,128.5 C 193.496,128.414 194.329,128.748 195,129.5C 200.078,150.725 204.578,172.058 208.5,193.5C 206.692,193.509 205.025,193.009 203.5,192C 191.602,180.771 180.435,168.937 170,156.5C 169.333,154.833 169.333,153.167 170,151.5C 177.702,143.965 185.202,136.298 192.5,128.5 Z"/></g>
    <g><path style="opacity:0.963" fill="#f7d93d" d="M 200.5,132.5 C 217.371,152.554 233.538,173.22 249,194.5C 251.917,198.666 254.584,202.999 257,207.5C 257.684,208.784 257.517,209.951 256.5,211C 244.905,213.44 234.072,211.606 224,205.5C 215.654,181.296 207.821,156.963 200.5,132.5 Z"/></g>
    <g><path style="opacity:0.966" fill="#f7d93d" d="M 183.5,218.5 C 188.739,218.287 192.739,220.454 195.5,225C 201.501,229.336 207.834,233.169 214.5,236.5C 211.568,238.654 208.234,240.154 204.5,241C 171.378,251.341 139.044,249.341 107.5,235C 96.4064,232.434 85.4064,229.767 74.5,227C 78.3125,225.738 82.3125,225.071 86.5,225C 110.5,224.667 134.5,224.333 158.5,224C 167.304,223.742 175.637,221.908 183.5,218.5 Z"/></g>
</svg>
