<?xml version="1.0" standalone="no"?>
<!DOCTYPE svg PUBLIC "-//W3C//DTD SVG 20010904//EN"
 "http://www.w3.org/TR/2001/REC-SVG-20010904/DTD/svg10.dtd">
<svg version="1.0" xmlns="http://www.w3.org/2000/svg"
 width="291.000000pt" height="96.000000pt" viewBox="0 0 291.000000 96.000000"
 preserveAspectRatio="xMidYMid meet">

<g transform="translate(0.000000,96.000000) scale(0.100000,-0.100000)"
fill="#000000" stroke="none">
<path d="M292 854 c-29 -14 -66 -42 -82 -62 l-31 -37 49 -3 c43 -3 54 -8 97
-52 27 -28 53 -50 57 -50 4 0 8 18 8 40 0 34 -4 41 -25 46 -33 8 -32 18 6 45
31 21 31 22 57 2 34 -25 38 -39 12 -46 -16 -4 -20 -13 -20 -48 l0 -43 50 49
c44 43 57 50 102 55 l52 5 -34 39 c-75 85 -198 110 -298 60z m110 5 c-29 -11
-24 -31 9 -40 23 -7 23 -7 -4 -8 -16 -1 -30 5 -33 14 -8 19 13 45 35 44 10 0
8 -4 -7 -10z"/>
<path d="M188 713 c12 -2 32 -2 45 0 12 2 2 4 -23 4 -25 0 -35 -2 -22 -4z"/>
<path d="M568 713 c12 -2 32 -2 45 0 12 2 2 4 -23 4 -25 0 -35 -2 -22 -4z"/>
<path d="M173 683 c9 -2 25 -2 35 0 9 3 1 5 -18 5 -19 0 -27 -2 -17 -5z"/>
<path d="M593 683 c9 -2 25 -2 35 0 9 3 1 5 -18 5 -19 0 -27 -2 -17 -5z"/>
<path d="M158 653 c6 -2 18 -2 25 0 6 3 1 5 -13 5 -14 0 -19 -2 -12 -5z"/>
<path d="M618 653 c6 -2 18 -2 25 0 6 3 1 5 -13 5 -14 0 -19 -2 -12 -5z"/>
<path d="M154 589 c14 -87 84 -173 160 -196 29 -9 37 -8 50 6 21 23 20 33 -5
75 -15 27 -20 49 -17 84 l3 49 -39 -18 c-44 -19 -89 -11 -109 22 -7 11 -20 19
-31 19 -16 0 -18 -5 -12 -41z m119 -92 c-6 -10 -33 18 -33 34 0 8 7 5 19 -7
10 -10 16 -22 14 -27z m26 11 c0 -31 -1 -31 -10 -10 -5 13 -7 28 -3 33 10 16
14 9 13 -23z"/>
<path d="M606 611 c-31 -34 -70 -42 -110 -22 l-35 18 5 -41 c4 -32 0 -52 -21
-90 -24 -45 -25 -50 -10 -73 12 -18 21 -22 38 -17 93 28 177 130 177 214 0 35
-18 39 -44 11z m-59 -118 c-3 -10 -5 -2 -5 17 0 19 2 27 5 18 2 -10 2 -26 0
-35z"/>
<path d="M696 618 c-17 -57 -22 -95 -12 -110 15 -25 -8 -68 -37 -68 -31 0 -58
-30 -51 -57 5 -17 -1 -25 -27 -38 -30 -16 -33 -16 -45 -1 -11 16 -15 16 -48 2
-20 -8 -36 -22 -36 -30 0 -9 -4 -16 -10 -16 -15 0 -12 -21 7 -42 15 -17 15
-19 -2 -38 -38 -42 6 -138 79 -171 39 -18 90 -19 1126 -19 682 0 1098 4 1119
10 46 13 99 65 111 110 5 19 10 103 10 185 0 137 -2 155 -22 195 -27 52 -60
78 -114 90 -22 6 -476 10 -1042 10 -794 0 -1003 -3 -1006 -12z m784 -96 c0 -5
-10 -8 -22 -8 -31 1 -29 -26 2 -35 l25 -7 -28 -1 c-29 -1 -43 18 -33 44 6 15
56 21 56 7z m74 -20 l15 -28 -34 0 c-33 1 -33 1 -19 29 18 34 20 34 38 -1z
m86 19 c0 -5 -10 -7 -22 -5 l-23 5 23 -12 c31 -17 28 -39 -5 -38 l-28 1 25 8
c23 7 23 8 3 9 -24 1 -37 16 -28 31 8 12 55 13 55 1z m40 -21 c0 -16 -4 -30
-10 -30 -5 0 -10 14 -10 30 0 17 5 30 10 30 6 0 10 -13 10 -30z m50 15 c16
-20 27 -19 33 3 3 9 5 2 6 -15 1 -37 -5 -40 -31 -16 -17 15 -18 15 -18 0 0
-10 -4 -17 -10 -17 -5 0 -10 14 -10 30 0 33 11 38 30 15z m125 -15 c0 -21 -5
-25 -30 -25 -33 0 -48 30 -23 46 25 17 53 6 53 -21z m395 -111 c0 -14 -7 -19
-30 -19 l-30 0 0 -60 c0 -57 -1 -60 -25 -60 -24 0 -25 3 -25 60 l0 60 -30 0
c-24 0 -30 4 -30 23 0 21 3 22 85 19 76 -3 85 -5 85 -23z m-1450 -9 c7 -16 16
-30 20 -30 4 0 13 14 20 30 10 25 18 30 46 30 l34 0 0 -80 c0 -79 0 -80 -25
-80 -23 0 -25 3 -26 53 l-1 52 -21 -47 c-12 -26 -25 -48 -29 -48 -3 0 -14 20
-24 45 -25 66 -37 67 -32 1 3 -51 1 -56 -17 -56 -18 0 -20 7 -20 80 l0 80 31
0 c26 0 34 -6 44 -30z m340 10 c0 -18 -7 -20 -55 -20 -30 0 -55 -4 -55 -10 0
-5 16 -10 35 -10 28 0 35 -4 35 -20 0 -16 -7 -20 -35 -20 -19 0 -35 -4 -35
-10 0 -5 25 -10 55 -10 48 0 55 -2 55 -20 0 -18 -7 -20 -77 -20 l-78 0 0 80 0
80 78 0 c70 0 77 -2 77 -20z m208 8 c19 -19 15 -66 -7 -80 -19 -12 -19 -12 0
-40 l20 -28 -28 0 c-21 0 -32 8 -45 30 -23 40 -48 40 -48 0 0 -25 -4 -30 -25
-30 -25 0 -25 1 -25 80 l0 80 73 0 c43 0 78 -5 85 -12z m220 4 c7 -5 10 -16 7
-24 -5 -12 -16 -15 -44 -11 -45 6 -81 -10 -81 -36 0 -31 26 -44 75 -38 37 4
47 1 55 -13 12 -23 -5 -30 -74 -30 -96 0 -137 70 -77 131 25 24 38 29 78 29
26 0 54 -4 61 -8z m192 -5 c0 -8 11 -41 25 -75 14 -34 25 -64 25 -67 0 -3 -11
-5 -25 -5 -16 0 -25 6 -25 15 0 11 -11 15 -40 15 -27 0 -43 -5 -46 -15 -6 -14
-44 -22 -44 -8 0 3 12 39 28 79 27 74 27 74 65 74 24 0 37 -5 37 -13z m200
-35 l35 -47 3 48 c3 39 6 47 23 47 17 0 19 -7 19 -80 0 -73 -2 -80 -19 -80
-11 0 -40 21 -65 48 l-46 47 0 -47 c0 -43 -2 -48 -22 -48 -22 0 -23 4 -23 80
l0 80 30 0 c24 -1 37 -10 65 -48z m390 -32 c0 -79 0 -80 -25 -80 -25 0 -25 1
-25 80 0 79 0 80 25 80 25 0 25 -1 25 -80z m112 20 l-4 -60 61 0 c57 0 61 -2
61 -22 0 -22 -3 -23 -79 -20 l-80 3 -3 80 c-3 79 -3 79 22 79 24 0 25 -2 22
-60z m-1712 -168 c-23 -4 -24 -5 -5 -13 17 -6 17 -8 3 -8 -26 -1 -22 -19 5
-24 19 -4 18 -4 -5 -6 -25 -1 -28 3 -28 29 0 26 3 30 28 29 27 -2 27 -2 2 -7z
m87 -39 c-3 -10 -5 -2 -5 17 0 19 2 27 5 18 2 -10 2 -26 0 -35z m64 31 c12
-14 14 -14 20 3 6 13 8 9 8 -16 l1 -34 -24 22 -24 23 -5 -24 c-3 -18 -5 -16
-6 10 -1 35 9 41 30 16z m114 -14 c0 -20 -6 -26 -27 -28 -25 -3 -28 0 -28 28
0 28 3 31 28 28 21 -2 27 -8 27 -28z m45 5 c0 -16 6 -25 15 -25 9 0 15 9 15
25 0 14 5 25 10 25 12 0 13 -30 1 -48 -4 -8 -19 -12 -32 -10 -18 2 -25 10 -27
31 -2 15 1 27 7 27 6 0 11 -11 11 -25z m120 16 c0 -5 -10 -7 -22 -5 l-23 5 23
-10 c32 -15 29 -41 -5 -40 l-28 1 25 8 c14 5 18 8 9 9 -20 1 -42 25 -32 34 10
10 53 8 53 -2z m73 2 c-7 -2 -13 -16 -13 -29 0 -13 -4 -24 -10 -24 -5 0 -10
11 -10 24 0 13 -6 27 -12 29 -7 3 3 5 22 5 19 0 29 -2 23 -5z m82 -25 c1 -31
-5 -34 -23 -16 -10 10 -15 10 -22 -2 -7 -11 -10 -7 -10 18 0 30 2 33 28 30 22
-2 27 -8 27 -30z m45 2 c0 -16 -4 -30 -10 -30 -5 0 -10 14 -10 30 0 17 5 30
10 30 6 0 10 -13 10 -30z m64 2 c14 -28 14 -28 -19 -28 -33 0 -33 0 -19 28 8
15 17 28 19 28 2 0 11 -13 19 -28z m69 -25 c18 -4 17 -5 -5 -6 -25 -1 -28 2
-27 32 2 29 2 29 6 5 3 -18 12 -28 26 -31z m132 23 c0 -21 -5 -26 -32 -28 -31
-3 -33 -1 -33 28 0 29 2 31 33 28 27 -2 32 -7 32 -28z m60 20 c-21 -5 -24 -8
-10 -9 l20 -2 -20 -11 c-19 -12 -18 -13 10 -19 l30 -7 -32 -1 c-30 -1 -33 2
-33 29 0 27 3 30 33 29 l32 -1 -30 -8z m135 -6 c0 -9 -9 -18 -20 -21 -11 -3
-20 -9 -20 -14 0 -5 -4 -9 -10 -9 -5 0 -10 14 -10 30 0 27 3 30 30 30 21 0 30
-5 30 -16z m85 -14 c0 -20 -6 -26 -28 -28 -29 -4 -44 16 -33 44 4 10 15 14 33
12 22 -2 28 -8 28 -28z m57 13 c17 -15 18 -15 18 0 0 10 5 17 10 17 6 0 10
-13 10 -30 0 -33 -11 -38 -30 -15 -16 20 -27 19 -33 -2 -3 -10 -5 -3 -6 15 -1
36 5 39 31 15z m106 10 c-11 -3 -19 -15 -19 -31 l-2 -27 -4 27 c-2 15 -12 29
-21 31 -9 3 1 5 23 5 22 0 32 -2 23 -5z m62 -1 c-23 -4 -24 -5 -5 -13 17 -6
17 -8 3 -8 -26 -1 -22 -19 5 -24 16 -3 13 -5 -10 -6 -30 -1 -33 2 -33 29 0 27
3 30 33 29 27 -2 28 -2 7 -7z m60 -20 c0 -13 5 -12 20 8 l20 25 -11 -32 c-13
-40 -26 -42 -39 -7 -13 32 -12 37 0 29 6 -3 10 -14 10 -23z m95 18 c-21 -5
-24 -8 -10 -9 l20 -2 -20 -11 c-19 -12 -18 -13 10 -19 l30 -7 -32 -1 c-30 -1
-33 2 -33 29 0 27 3 30 33 29 l32 -1 -30 -8z m100 -20 c0 -20 -6 -26 -27 -28
-25 -3 -28 0 -28 28 0 28 3 31 28 28 21 -2 27 -8 27 -28z m82 0 c-2 -27 -17
-45 -17 -20 0 6 -7 10 -16 10 -8 0 -12 -4 -9 -10 3 -5 1 -10 -4 -10 -6 0 -11
14 -11 30 0 27 3 30 30 30 26 0 29 -3 27 -30z m71 5 c7 -14 12 -27 12 -28 0
-1 -13 -2 -30 -2 -16 0 -30 1 -30 2 0 9 25 53 30 53 4 0 12 -11 18 -25z"/>
<path d="M1805 511 c-9 -16 3 -31 26 -31 14 0 19 6 17 17 -4 20 -33 29 -43 14z"/>
<path d="M1240 361 c0 -17 6 -21 36 -21 28 0 35 3 32 18 -2 11 -14 18 -36 20
-27 3 -32 0 -32 -17z"/>
<path d="M1702 345 c-16 -35 -16 -35 14 -35 22 0 24 3 19 23 -11 36 -21 39
-33 12z"/>
<path d="M970 160 c0 -13 7 -20 20 -20 13 0 20 7 20 20 0 13 -7 20 -20 20 -13
0 -20 -7 -20 -20z"/>
<path d="M1290 170 c0 -5 7 -10 15 -10 8 0 15 5 15 10 0 6 -7 10 -15 10 -8 0
-15 -4 -15 -10z"/>
<path d="M1600 160 c0 -15 5 -20 18 -18 9 2 17 10 17 18 0 8 -8 16 -17 18 -13
2 -18 -3 -18 -18z"/>
<path d="M1808 173 c7 -3 16 -2 19 1 4 3 -2 6 -13 5 -11 0 -14 -3 -6 -6z"/>
<path d="M1875 170 c-4 -7 -3 -16 3 -22 14 -14 45 -2 40 15 -6 16 -34 21 -43
7z"/>
<path d="M2360 160 c0 -15 5 -20 18 -18 9 2 17 10 17 18 0 8 -8 16 -17 18 -13
2 -18 -3 -18 -18z"/>
<path d="M2450 170 c0 -5 4 -10 9 -10 6 0 13 5 16 10 3 6 -1 10 -9 10 -9 0
-16 -4 -16 -10z"/>
<path d="M370 550 c0 -22 5 -40 10 -40 6 0 10 18 10 40 0 22 -4 40 -10 40 -5
0 -10 -18 -10 -40z"/>
<path d="M421 550 c0 -40 2 -42 11 -22 8 16 8 28 0 45 -9 19 -11 17 -11 -23z"/>
</g>
</svg>
