<svg version="1.0" xmlns="http://www.w3.org/2000/svg" width="1024.000000pt" height="228.000000pt" viewBox="0 0 1024.000000 228.000000" preserveAspectRatio="xMidYMid meet">

<g transform="translate(0.000000,228.000000) scale(0.100000,-0.100000)" fill="#f7d93e" stroke="none">
<path d="M5670 1923 l0 -278 -30 51 c-38 67 -108 128 -179 156 -81 32 -242 32 -324 -1 -169 -67 -263 -217 -274 -436 -9 -173 38 -306 143 -405 161 -153 428 -155 578 -5 24 24 53 63 65 87 l21 43 0 -112 0 -113 80 0 80 0 0 645 0 645 -80 0 -80 0 0 -277z m-213 -203 c71 -21 134 -78 173 -154 34 -67 35 -73 35 -180 0 -99 -3 -117 -26 -166 -34 -72 -100 -135 -166 -160 -73 -27 -184 -27 -257 1 -75 28 -149 108 -173 187 -21 72 -21 210 0 275 54 169 229 252 414 197z" fill="#f7d93e"/>
<path d="M1087 2126 c-82 -22 -258 -156 -384 -290 -135 -146 -257 -352 -308 -521 -47 -157 -50 -212 -44 -620 4 -229 6 -254 25 -295 42 -88 88 -115 254 -150 66 -13 141 -38 203 -66 54 -25 141 -57 195 -72 89 -24 112 -27 277 -27 192 0 266 11 422 60 157 51 403 188 507 284 75 69 110 169 108 311 -1 161 -43 314 -141 515 -207 423 -581 784 -896 865 -89 23 -149 24 -218 6z m295 -179 c127 -62 230 -140 363 -279 227 -235 393 -527 447 -788 59 -285 -41 -439 -253 -386 -284 72 -629 409 -819 801 -138 285 -168 522 -82 643 35 49 76 63 168 59 72 -3 91 -8 176 -50z m-524 -230 c20 -490 526 -1176 987 -1337 l50 -18 -76 -36 c-161 -75 -323 -110 -514 -109 -167 1 -272 24 -431 96 -64 29 -136 53 -201 66 -114 23 -157 41 -174 73 -19 35 -21 613 -3 712 37 196 131 377 292 564 29 34 57 62 60 62 4 0 8 -33 10 -73z" fill="#f7d93e"/>
<path d="M1170 1906 c0 -7 327 -465 368 -515 l19 -24 6 129 c4 71 7 155 7 187 l0 57 -61 45 c-98 72 -197 116 -273 122 -36 3 -66 2 -66 -1z" fill="#f7d93e"/>
<path d="M1087 1824 c-24 -40 -16 -188 18 -300 l15 -51 202 -70 c112 -39 205 -69 207 -67 2 1 -82 98 -185 215 -104 117 -203 228 -220 248 -17 19 -33 30 -37 25z" fill="#f7d93e"/>
<path d="M1647 1650 c-9 -24 -51 -340 -46 -344 3 -3 241 -91 382 -142 l38 -14 -46 87 c-87 165 -315 451 -328 413z" fill="#f7d93e"/>
<path d="M1170 1352 c0 -12 101 -188 123 -214 l22 -27 98 86 c54 47 95 89 90 93 -4 4 -48 15 -98 24 -49 8 -123 22 -162 30 -40 7 -73 11 -73 8z" fill="#f7d93e"/>
<path d="M1457 1152 c-53 -54 -97 -101 -97 -106 0 -34 302 -344 307 -316 3 14 -103 509 -110 516 -2 2 -47 -40 -100 -94z" fill="#f7d93e"/>
<path d="M1652 1232 c73 -101 453 -570 459 -566 30 18 17 200 -23 319 l-23 68 -208 98 c-115 55 -211 99 -214 99 -2 0 2 -8 9 -18z" fill="#f7d93e"/>
<path d="M1612 1198 c2 -7 45 -138 97 -291 l93 -279 47 -20 c60 -27 179 -35 205 -15 18 13 7 30 -208 316 -125 165 -230 301 -233 301 -2 0 -3 -6 -1 -12z" fill="#f7d93e"/>
<path d="M1480 521 c-8 -5 -51 -17 -95 -27 -68 -15 -131 -18 -422 -18 -383 -1 -440 -10 -251 -40 75 -12 145 -31 210 -56 157 -64 246 -83 378 -83 63 0 138 5 165 12 97 21 255 66 254 71 0 3 -26 18 -59 33 -32 15 -81 48 -108 72 -55 50 -51 48 -72 36z" fill="#f7d93e"/>
<path d="M3050 1525 l0 -615 300 0 300 0 0 60 0 60 -215 0 -215 0 -2 553 -3 552 -82 3 -83 3 0 -616z" fill="#f7d93e"/>
<path d="M4113 1866 c-162 -40 -284 -163 -328 -333 -31 -118 -15 -295 36 -396 88 -174 282 -267 496 -238 180 25 339 158 370 312 l6 29 -85 0 -85 0 -12 -41 c-18 -59 -93 -132 -160 -154 -67 -22 -163 -22 -228 -1 -94 31 -172 123 -188 222 -3 21 -8 49 -11 61 l-4 23 387 2 388 3 3 63 c10 221 -132 406 -346 451 -68 14 -173 13 -239 -3z m262 -145 c95 -42 148 -119 161 -235 l7 -56 -309 2 -309 3 3 30 c14 136 88 229 217 272 57 19 169 11 230 -16z" fill="#f7d93e"/>
<path d="M6436 1856 c-66 -28 -115 -70 -157 -135 l-28 -44 -3 94 -3 94 -77 3 -78 3 0 -481 0 -480 80 0 80 0 0 300 c0 280 1 303 21 355 43 116 129 175 255 175 119 0 199 -54 241 -161 14 -37 17 -93 21 -356 l4 -313 79 0 79 0 0 298 c0 340 5 370 70 444 57 65 122 91 220 86 101 -4 159 -38 204 -118 l31 -55 3 -327 3 -328 80 0 80 0 -3 348 c-3 335 -4 349 -26 404 -31 76 -99 150 -170 185 -52 26 -67 28 -167 28 -93 0 -118 -3 -159 -23 -74 -34 -128 -83 -163 -148 l-31 -57 -26 51 c-34 68 -87 119 -155 151 -46 21 -73 26 -151 29 -82 2 -103 -1 -154 -22z" fill="#f7d93e"/>
<path d="M8211 1869 c-188 -37 -334 -196 -363 -396 -38 -260 85 -476 313 -554 91 -31 229 -31 324 0 205 66 320 234 319 466 0 161 -43 274 -139 364 -115 109 -284 154 -454 120z m250 -161 c101 -46 163 -135 178 -256 22 -182 -40 -320 -174 -384 -50 -23 -73 -28 -140 -28 -67 0 -90 5 -140 28 -67 32 -117 83 -149 151 -18 39 -21 65 -21 171 0 116 2 129 27 175 81 155 260 216 419 143z" fill="#f7d93e"/>
<path d="M9376 1856 c-80 -34 -124 -71 -166 -141 l-35 -59 -3 107 -3 107 -74 0 -75 0 0 -480 0 -480 74 0 74 0 4 303 c4 283 6 306 26 358 27 67 98 139 158 160 21 7 73 14 114 13 93 0 159 -30 207 -92 53 -70 56 -91 60 -429 l5 -313 80 0 80 0 -4 333 c-4 278 -8 341 -22 386 -23 70 -53 117 -106 165 -68 61 -120 79 -235 83 -88 3 -107 1 -159 -21z" fill="#f7d93e"/>
<path d="M5094 675 c-4 -9 -2 -21 4 -27 16 -16 47 -5 47 17 0 26 -42 34 -51 10z" fill="#f7d93e"/>
<path d="M7980 665 c0 -20 5 -25 24 -25 25 0 36 15 29 38 -3 6 -16 12 -29 12 -19 0 -24 -5 -24 -25z" fill="#f7d93e"/>
<path d="M9456 674 c-9 -22 1 -34 30 -34 19 0 24 5 24 25 0 20 -5 25 -24 25 -13 0 -27 -7 -30 -16z" fill="#f7d93e"/>
<path d="M4254 667 c-2 -7 -3 -105 -2 -217 3 -203 3 -205 25 -208 21 -3 22 1 25 69 l3 72 60 -71 c42 -51 66 -72 82 -72 29 0 29 11 2 36 -12 10 -43 45 -71 76 l-49 57 72 78 c64 70 69 78 48 81 -17 3 -37 -12 -85 -65 l-63 -68 -1 123 c0 116 -1 122 -20 122 -11 0 -23 -6 -26 -13z" fill="#f7d93e"/>
<path d="M7642 463 c3 -198 5 -218 21 -221 16 -3 17 12 17 217 0 215 -1 221 -20 221 -20 0 -20 -5 -18 -217z" fill="#f7d93e"/>
<path d="M9330 590 l0 -90 -29 32 c-27 31 -34 33 -94 33 -56 0 -69 -4 -92 -25 -41 -38 -55 -73 -55 -135 0 -62 14 -97 55 -135 23 -21 36 -25 92 -25 60 0 67 2 94 33 l29 32 0 -35 c0 -28 4 -35 20 -35 19 0 20 7 20 220 0 213 -1 220 -20 220 -19 0 -20 -7 -20 -90z m-34 -94 c31 -31 34 -40 34 -91 0 -51 -3 -60 -34 -91 -29 -29 -41 -34 -80 -34 -36 0 -52 6 -78 29 -31 28 -33 33 -33 96 0 63 2 68 33 96 26 23 42 29 78 29 39 0 51 -5 80 -34z" fill="#f7d93e"/>
<path d="M6254 660 c-54 -21 -72 -105 -33 -154 l20 -26 -21 0 c-65 0 -106 -58 -97 -136 7 -64 39 -95 106 -102 46 -4 53 -2 81 26 19 19 30 41 30 59 1 27 2 26 54 -29 29 -32 61 -58 70 -58 10 0 16 4 14 9 -1 5 -55 70 -118 145 -118 140 -134 167 -117 201 29 59 109 42 119 -25 2 -14 11 -26 21 -28 13 -3 17 3 17 28 0 44 -16 69 -55 86 -38 16 -60 17 -91 4z m5 -221 c32 -11 61 -52 61 -87 0 -11 -9 -31 -21 -46 -16 -20 -29 -26 -60 -26 -54 0 -79 27 -79 83 0 43 15 67 50 80 8 3 15 6 16 6 1 1 15 -4 33 -10z" fill="#f7d93e"/>
<path d="M4900 611 c0 -33 -4 -40 -22 -43 -29 -4 -30 -32 -1 -36 20 -3 22 -9 25 -122 4 -138 14 -157 87 -167 37 -5 41 -4 41 16 0 16 -6 21 -28 21 -47 0 -52 14 -52 137 l0 113 40 0 c33 0 40 3 40 20 0 17 -7 20 -40 20 l-40 0 0 40 c0 36 -2 40 -25 40 -22 0 -25 -4 -25 -39z" fill="#f7d93e"/>
<path d="M7790 610 c0 -36 -2 -40 -25 -40 -18 0 -25 -5 -25 -20 0 -15 7 -20 25 -20 l25 0 0 -119 c0 -142 9 -160 83 -168 43 -5 47 -4 47 16 0 17 -6 21 -29 21 -53 0 -61 19 -61 141 l0 109 45 0 c38 0 45 3 45 20 0 17 -7 20 -45 20 l-45 0 0 40 c0 33 -3 40 -20 40 -17 0 -20 -7 -20 -40z" fill="#f7d93e"/>
<path d="M3055 558 c-3 -8 -4 -81 -3 -163 3 -147 3 -150 26 -153 22 -3 22 -2 22 108 0 131 11 162 65 180 28 9 43 9 66 0 48 -20 59 -55 59 -180 0 -102 1 -110 19 -110 18 0 20 10 23 120 3 115 4 121 31 147 38 39 99 39 133 0 22 -26 24 -36 24 -148 0 -114 1 -119 21 -119 20 0 20 4 17 136 l-3 136 -33 29 c-27 24 -41 29 -83 29 -44 0 -55 -4 -83 -32 l-33 -33 -30 33 c-26 28 -37 32 -81 32 -39 0 -57 -6 -81 -25 l-30 -26 -3 23 c-3 26 -35 37 -43 16z" fill="#f7d93e"/>
<path d="M3703 550 c-46 -28 -67 -74 -67 -145 0 -103 53 -165 142 -165 51 0 79 12 109 48 l23 27 0 -37 c0 -31 4 -38 20 -38 19 0 20 7 20 165 0 158 -1 165 -20 165 -16 0 -20 -7 -20 -37 l0 -38 -23 27 c-12 14 -32 31 -44 37 -34 17 -105 13 -140 -9z m155 -36 c68 -48 68 -170 0 -218 -25 -18 -100 -21 -129 -6 -28 16 -49 63 -49 115 0 82 37 124 110 125 25 0 55 -7 68 -16z" fill="#f7d93e"/>
<path d="M4040 405 c0 -158 1 -165 20 -165 19 0 20 7 20 105 0 133 12 160 75 177 32 9 45 17 45 30 0 26 -40 23 -84 -7 l-36 -24 0 24 c0 18 -5 25 -20 25 -19 0 -20 -7 -20 -165z" fill="#f7d93e"/>
<path d="M4585 551 c-53 -32 -70 -67 -70 -146 0 -58 4 -76 24 -104 57 -80 189 -83 250 -5 26 34 27 54 1 54 -11 0 -26 -12 -35 -30 -19 -37 -73 -54 -126 -40 -38 11 -63 39 -75 84 l-6 26 131 0 c118 0 131 2 132 18 6 100 -50 162 -146 162 -31 0 -61 -7 -80 -19z m123 -22 c36 -12 62 -48 62 -84 l0 -25 -110 0 c-73 0 -110 4 -110 11 0 28 34 79 63 93 38 19 54 19 95 5z" fill="#f7d93e"/>
<path d="M5100 405 c0 -158 1 -165 20 -165 19 0 20 7 20 165 0 158 -1 165 -20 165 -19 0 -20 -7 -20 -165z" fill="#f7d93e"/>
<path d="M5230 405 c0 -155 1 -165 19 -165 17 0 19 10 22 120 4 115 5 121 32 147 22 22 37 28 73 28 38 0 50 -5 70 -28 22 -26 24 -36 24 -148 0 -112 1 -119 20 -119 19 0 20 7 20 120 0 167 -25 210 -122 210 -39 0 -54 -6 -83 -31 l-35 -31 0 31 c0 24 -4 31 -20 31 -19 0 -20 -7 -20 -165z" fill="#f7d93e"/>
<path d="M5653 550 c-46 -27 -67 -74 -68 -145 0 -72 24 -119 75 -146 63 -34 148 -19 184 33 15 21 16 19 16 -41 0 -58 -3 -66 -34 -97 -28 -28 -41 -34 -77 -34 -36 0 -47 6 -81 41 -25 26 -44 39 -54 35 -14 -5 -14 -10 3 -39 21 -37 93 -77 138 -77 43 0 96 30 122 69 22 32 23 43 23 227 0 187 -1 194 -20 194 -16 0 -20 -7 -20 -37 0 -37 0 -37 -16 -15 -36 52 -132 69 -191 32z m155 -36 c31 -21 52 -66 52 -109 0 -73 -47 -125 -112 -125 -80 0 -120 42 -120 125 0 80 40 124 112 125 25 0 55 -7 68 -16z" fill="#f7d93e"/>
<path d="M6690 405 c0 -156 1 -165 19 -165 18 0 20 10 23 120 3 115 4 121 31 147 38 39 99 39 133 0 22 -26 24 -36 24 -148 0 -112 1 -119 20 -119 19 0 20 7 20 103 0 116 16 163 63 185 34 16 78 8 103 -20 16 -16 20 -42 24 -142 5 -116 6 -121 28 -124 22 -3 22 -2 22 100 0 125 -11 169 -51 202 -50 43 -151 29 -179 -24 -10 -20 -12 -19 -44 15 -30 31 -39 35 -85 35 -45 0 -57 -4 -82 -29 l-29 -29 0 29 c0 22 -5 29 -20 29 -19 0 -20 -7 -20 -165z" fill="#f7d93e"/>
<path d="M7272 443 c4 -170 26 -203 134 -203 37 0 51 6 74 29 l29 28 3 -26 c2 -18 9 -26 23 -26 19 0 20 7 20 160 0 153 -1 160 -20 160 -19 0 -20 -8 -25 -121 -3 -79 -10 -126 -18 -137 -23 -27 -77 -40 -115 -28 -52 17 -61 42 -65 174 -4 109 -5 117 -24 117 -19 0 -20 -6 -16 -127z" fill="#f7d93e"/>
<path d="M7985 558 c-3 -8 -4 -81 -3 -163 3 -142 4 -150 23 -150 19 0 20 7 20 160 0 144 -2 160 -18 163 -9 2 -19 -3 -22 -10z" fill="#f7d93e"/>
<path d="M8115 558 c-3 -8 -4 -81 -3 -163 3 -142 4 -150 23 -150 19 0 20 8 25 115 3 64 11 125 17 137 19 32 76 48 114 33 48 -20 59 -55 59 -180 0 -102 1 -110 19 -110 18 0 20 10 23 120 3 115 4 121 31 147 38 39 99 39 133 0 22 -26 24 -36 24 -148 0 -114 1 -119 21 -119 20 0 20 4 17 136 l-3 136 -33 29 c-27 24 -41 29 -83 29 -45 0 -55 -4 -83 -33 l-31 -33 -31 33 c-27 29 -37 33 -82 33 -39 0 -57 -6 -81 -25 l-30 -26 -3 23 c-3 26 -35 37 -43 16z" fill="#f7d93e"/>
<path d="M8773 554 c-50 -25 -76 -76 -77 -148 -2 -111 63 -173 171 -164 44 4 60 11 87 37 43 42 53 71 23 71 -14 0 -28 -11 -39 -29 -22 -40 -83 -57 -130 -38 -40 17 -56 35 -68 76 l-8 30 131 3 132 3 -1 42 c-2 104 -120 166 -221 117z m122 -28 c33 -14 65 -59 65 -91 0 -13 -18 -15 -114 -15 l-115 0 9 31 c22 75 83 105 155 75z" fill="#f7d93e"/>
<path d="M9467 564 c-4 -4 -7 -79 -7 -166 l0 -159 23 3 c22 3 22 5 22 163 0 136 -2 160 -15 163 -9 1 -19 0 -23 -4z" fill="#f7d93e"/>
<path d="M9670 563 c-55 -22 -90 -84 -90 -160 0 -105 61 -167 158 -160 43 3 59 10 87 37 l35 34 0 -38 c0 -30 3 -37 18 -34 15 3 17 19 17 163 0 144 -2 160 -17 163 -15 3 -18 -4 -18 -34 l0 -38 -35 34 c-29 28 -43 34 -87 36 -29 2 -60 1 -68 -3z m129 -48 c32 -16 55 -63 55 -110 0 -78 -46 -125 -123 -125 -31 0 -49 7 -73 29 -31 28 -33 33 -33 96 0 63 2 68 33 96 37 33 94 39 141 14z" fill="#f7d93e"/>
</g>
</svg>