<?xml version="1.0" standalone="no"?>
<!DOCTYPE svg PUBLIC "-//W3C//DTD SVG 20010904//EN"
 "http://www.w3.org/TR/2001/REC-SVG-20010904/DTD/svg10.dtd">
<svg version="1.0" xmlns="http://www.w3.org/2000/svg"
 width="100.000000pt" height="96.000000pt" viewBox="0 0 100.000000 96.000000"
 preserveAspectRatio="xMidYMid meet">

<g transform="translate(0.000000,96.000000) scale(0.100000,-0.100000)"
fill="#000000" stroke="none">
<path d="M362 714 c-29 -14 -66 -42 -82 -62 l-31 -37 49 -3 c43 -3 54 -8 97
-52 27 -28 53 -50 57 -50 4 0 8 18 8 40 0 34 -4 41 -25 46 -33 8 -32 18 6 45
31 21 31 22 57 2 34 -25 38 -39 12 -46 -16 -4 -20 -13 -20 -48 l0 -43 50 49
c44 43 57 50 102 55 l52 5 -34 39 c-75 85 -198 110 -298 60z m110 5 c-29 -11
-24 -31 9 -40 23 -7 23 -7 -4 -8 -16 -1 -30 5 -33 14 -8 19 13 45 35 44 10 0
8 -4 -7 -10z"/>
<path d="M258 573 c12 -2 32 -2 45 0 12 2 2 4 -23 4 -25 0 -35 -2 -22 -4z"/>
<path d="M638 573 c12 -2 32 -2 45 0 12 2 2 4 -23 4 -25 0 -35 -2 -22 -4z"/>
<path d="M243 543 c9 -2 25 -2 35 0 9 3 1 5 -18 5 -19 0 -27 -2 -17 -5z"/>
<path d="M663 543 c9 -2 25 -2 35 0 9 3 1 5 -18 5 -19 0 -27 -2 -17 -5z"/>
<path d="M228 513 c6 -2 18 -2 25 0 6 3 1 5 -13 5 -14 0 -19 -2 -12 -5z"/>
<path d="M688 513 c6 -2 18 -2 25 0 6 3 1 5 -13 5 -14 0 -19 -2 -12 -5z"/>
<path d="M224 449 c14 -87 84 -173 160 -196 29 -9 37 -8 50 6 21 23 20 33 -5
75 -15 27 -20 49 -17 84 l3 49 -39 -18 c-44 -19 -89 -11 -109 22 -7 11 -20 19
-31 19 -16 0 -18 -5 -12 -41z m119 -92 c-6 -10 -33 18 -33 34 0 8 7 5 19 -7
10 -10 16 -22 14 -27z m26 11 c0 -31 -1 -31 -10 -10 -5 13 -7 28 -3 33 10 16
14 9 13 -23z"/>
<path d="M676 471 c-31 -34 -70 -42 -110 -22 l-35 18 5 -41 c4 -32 0 -52 -21
-90 -24 -45 -25 -50 -10 -73 12 -18 21 -22 38 -17 93 28 177 130 177 214 0 35
-18 39 -44 11z m-59 -118 c-3 -10 -5 -2 -5 17 0 19 2 27 5 18 2 -10 2 -26 0
-35z"/>
<path d="M440 410 c0 -22 5 -40 10 -40 6 0 10 18 10 40 0 22 -4 40 -10 40 -5
0 -10 -18 -10 -40z"/>
<path d="M491 410 c0 -40 2 -42 11 -22 8 16 8 28 0 45 -9 19 -11 17 -11 -23z"/>
</g>
</svg>
